<?xml version="1.0" encoding="UTF-8"?><svg id="Layer_2" xmlns="http://www.w3.org/2000/svg" viewBox="0 0 138.7075 200.0076"><g id="Components"><g id="_4bafb450-4276-48ab-8f47-275986f2720c_10"><path d="m106.5002.0076c-20.6-.1953-36.6003,18.7988-32.5,38.4961h-6.2v33.5059H0v127.998h95.3003c20,0,40.2997-13.3984,40.2997-39.1016V46.4041c2.0001-4.2969,3.1-9.0918,3.1-14.1992C139.0997,15.1052,123.5999-.3928,106.5002.0076Zm-38.9001,147.6953v37.1094H15.2002v-37.1094c15-.8984,18.1-2.998,18.1-10.3906v-2.6074c0-8.3008-4.8999-9.8926-18.1-10.498v-37.002h34.2999v27.6074c2.6001-16.1035,8.9001-29.4043,30.1001-29.4043,16.5997,0,24.1998,13.2031,24.1998,25.498,0,10.6055-5.6,20.6055-16.3,20.6055-6.3,0-10.8002-2.9004-10.8002-9.4043,0-3.0957,1.6003-8.3984,9.7003-8.7012-5.4004-4.1992-16.6003-1.0938-15.9003,11.6992h-4.8999c-7.1997,0-16.0999,2.5977-16.0999,10v1.2012c0,7.5,2.1997,10.498,18.1,11.3965Zm52.7997,13.2031c0,18.5059-15.3998,23.9062-25.0995,23.9062-10,0-20.3003-4.9023-21.6003-19.502-.1001-1.0059-.1001-2.002-.1001-3.1055,0-.8008,0-1.6992.1001-2.5.9003-9.6973,7.0001-18.0957,18.4998-18.0957,6.3,0,11.4001,2.9004,11.4001,9.3945,0,2.9004-1.5997,8.3008-9.7998,8.7012,1.3.7031,2.8998,1.1035,4.6997,1.1035,4.2004,0,10.2002-3.3008,10.2002-10.7031,0-8.0957-5.4999-11.3965-9.4-11.6016v-4.5996c6.5002-4.4922,10.6-12.793,10.6-22.998,0-14.7949-9.2999-29.6973-26.9-31.4941v-25.7031h37.3999v107.1973Zm-13.8995-110.8008c-10.1001,0-17.9004-7.793-17.9004-17.9004,0-9.1992,7.8003-17.002,17.9004-17.002,9.1998,0,16.9995,7.8027,16.9995,17.002,0,10.1074-7.7997,17.9004-16.9995,17.9004Z" style="fill:#a6ad07;"/></g></g></svg>